<svg xmlns="http://www.w3.org/2000/svg" viewBox="0 0 583.45 514.25"><defs><style>.cls-1,.cls-2{fill:#f39200;}.cls-1,.cls-3,.cls-4,.cls-5,.cls-6,.cls-7,.cls-8,.cls-9{stroke:#1d1d1b;}.cls-1,.cls-2,.cls-3,.cls-4,.cls-5,.cls-6,.cls-7,.cls-8,.cls-9{stroke-miterlimit:10;}.cls-2{stroke:#fff;}.cls-3{fill:#be1622;}.cls-4{fill:#e6332a;}.cls-5{fill:#cbbba0;}.cls-6{fill:#fff;}.cls-7{fill:#b17f4a;}.cls-8{fill:#a48a7b;}.cls-9{fill:none;}</style></defs><g id="Camada_2" data-name="Camada 2"><g id="car"><g id="yellow-car"><path class="cls-1" d="M41.11,373.54,27.31,368l.13-7a11.37,11.37,0,0,0,1.67,1.61,12.6,12.6,0,0,0,4.38,2.16,12.84,12.84,0,0,0,7,.48l.31-.08C40.91,368,41,370.75,41.11,373.54Z"/><path class="cls-1" d="M41.11,373.54l3.44-2.89v-1.89a4.49,4.49,0,0,1,.17-2.22.76.76,0,0,1,0-.11,5.46,5.46,0,0,1,1.62-2.11c1-.83,2.43-1.93,3.61-1.39.95.43,1.49,1.78,1.34,3.28,1.12-1,2.11-1.79,2.91-2.43,0,0,1.06-.86,2.3-1.8l1.07-.8.7-.52.56-.41,1.07-.82.5-.38c0-.95.07-1.89.11-2.84l.72-1.78c.52-.44,1.08-.89,1.67-1.33.39-.3.79-.59,1.17-.85a2.06,2.06,0,0,1,1.64-.15c1,.4,1.54,1.85,1,3.44.53-3,1.07-7.36-.33-7.94a1,1,0,0,0-.72,0c-2.71.8-20.79,14.81-24.39,17.61"/><polyline class="cls-1" points="27.31 360.07 34.67 356.07 37.34 356.44 39.49 357.03 42.97 358.51 44.97 359.55 46.75 352.81 36.23 349.99 34.21 355.62"/><polyline class="cls-1" points="35.93 349.33 46.75 343.92 56.15 346.29 47.04 352.36"/><polyline class="cls-1" points="57.04 346.36 59.71 348.14 62.75 347.25 65.93 347.25"/><line class="cls-1" x1="60.08" y1="350.36" x2="59.49" y2="348.51"/><polyline class="cls-1" points="45.49 360.07 52.94 354.44 52.6 349.44 54.75 353.18 58.45 350.81 56.6 346.36"/><path class="cls-1" d="M46.11,371.48c-1-.61-.8-3.59.39-5.45s2.45-2.38,3.41-1.77.79,3.6-.4,5.46S47.07,372.09,46.11,371.48Z"/><path class="cls-2" d="M47.11,369.53c-.38-.25-.23-1.58.32-2.44s1.09-1.13,1.47-.88.23,1.58-.32,2.44S47.49,369.77,47.11,369.53Z"/><path class="cls-1" d="M62.11,360.29c-1-.61-.8-3.59.39-5.45s2.45-2.38,3.41-1.77.79,3.61-.4,5.47S63.07,360.9,62.11,360.29Z"/><path class="cls-2" d="M63.11,358.34c-.38-.24-.23-1.57.32-2.43s1.09-1.13,1.47-.89.23,1.58-.32,2.45S63.49,358.59,63.11,358.34Z"/></g><g id="red-car"><path class="cls-3" d="M421.57,401.72l11-8.58-2-7.85a12.21,12.21,0,0,1-1.09,2.1,10.35,10.35,0,0,1-3.4,3.19,9.53,9.53,0,0,1-6.22,1.75l-.3,0Q420.6,397,421.57,401.72Z"/><path class="cls-3" d="M421.57,401.72l-3.87-2.63-.5-2.11a6.36,6.36,0,0,0-.73-2.45.67.67,0,0,1-.06-.12,6.5,6.5,0,0,0-2-2.07c-1.16-.75-2.69-1.73-3.63-.92-.74.65-.87,2.25-.34,3.9-1.27-.89-2.38-1.63-3.27-2.21,0,0-1.19-.77-2.56-1.6-.27-.18-.66-.41-1.17-.71l-.77-.46L402,390c-.43-.25-.58-.35-1.18-.72l-.56-.34-.84-3.16-1.12-1.86c-.58-.4-1.2-.8-1.85-1.19q-.66-.4-1.29-.75a1.63,1.63,0,0,0-1.52.13c-.76.61-.9,2.33,0,4-1.26-3.26-2.89-8-1.78-8.94a.83.83,0,0,1,.65-.12c2.66.42,22.68,12.9,26.67,15.4"/><polyline class="cls-4" points="430.51 384.25 422.81 381.07 420.5 381.95 418.71 382.99 415.95 385.25 414.41 386.76 411.04 379.54 419.81 374.56 423.11 380.49"/><polyline class="cls-3" points="419.9 373.76 408.71 369.61 400.83 373.91 410.65 379.1"/><polyline class="cls-1" points="400.04 374.15 398.1 376.6 395.12 376.14 392.24 376.7"/><line class="cls-1" x1="398.34" y1="379.15" x2="398.4" y2="376.98"/><polyline class="cls-5" points="414.08 387.43 405.87 382.45 404.87 376.81 403.9 381.36 399.93 379.36 400.44 374.07"/><path class="cls-1" d="M416.5,400.29c.71-.85-.21-4.15-1.77-6s-2.84-2.23-3.55-1.38.23,4.16,1.79,6S415.8,401.14,416.5,400.29Z"/><path class="cls-2" d="M415.09,398.28c.28-.34-.2-1.79-.92-2.66s-1.29-1.07-1.57-.73.21,1.81.93,2.67S414.81,398.62,415.09,398.28Z"/><path class="cls-1" d="M399.11,390.6c.7-.85-.22-4.15-1.78-6s-2.84-2.23-3.54-1.38.23,4.16,1.79,6S398.4,391.45,399.11,390.6Z"/><path class="cls-2" d="M397.69,388.59c.29-.34-.2-1.79-.92-2.66s-1.28-1.07-1.57-.73.21,1.81.93,2.67S397.41,388.93,397.69,388.59Z"/></g></g><g id="buildings"><polygon class="cls-6" points="355.31 141.37 291.93 98.83 291.93 8.26 355.31 23.14 355.31 141.37"/><polygon class="cls-6" points="424.73 105.22 355.31 141.2 355.31 23.14 424.73 10.54 424.73 105.22"/><polygon class="cls-6" points="424.73 10.54 357.78 0.5 291.93 8.26 355.31 23.14 424.73 10.54"/><polygon class="cls-6" points="273.91 189.17 210.53 156.43 210.53 56.06 273.91 70.94 273.91 189.17"/><polygon class="cls-6" points="343.33 153.02 273.91 189 273.91 70.94 343.33 58.34 343.33 153.02"/><polygon class="cls-6" points="343.33 58.34 276.38 48.3 210.53 56.06 273.91 70.94 343.33 58.34"/><polygon class="cls-7" points="192.48 233.72 129.1 200.99 129.1 100.61 192.48 115.49 192.48 233.72"/><polygon class="cls-5" points="261.91 197.57 192.48 233.55 192.48 115.49 261.91 102.89 261.91 197.57"/><polygon class="cls-8" points="261.91 102.89 194.95 92.86 129.1 100.61 192.48 115.49 261.91 102.89"/></g><g id="streets"><line class="cls-9" x1="456.24" y1="100.61" x2="185.24" y2="246.91"/><line class="cls-9" x1="185.24" y1="246.91" x2="8.24" y2="150.91"/><line class="cls-9" x1="538.24" y1="109.91" x2="251.24" y2="270.91"/><line class="cls-9" x1="251.24" y1="270.91" x2="570.24" y2="406.91"/><path class="cls-9" d="M190.19,328.31c131.05,61.6,262.05,124.6,393.05,185.49"/><path class="cls-9" d="M.24,238.91c36,17,72,34,107.56,50.72"/><line class="cls-9" x1="107.8" y1="289.63" x2="0.24" y2="338.91"/><line class="cls-9" x1="190.19" y1="328.31" x2="0.24" y2="431.69"/></g></g></svg>