<svg xmlns="http://www.w3.org/2000/svg" viewBox="0 0 583.45 514.25">
  <defs>
    <style>
      .cls-1 {
        fill: #fff;
      }

      .cls-1, .cls-2, .cls-4, .cls-5, .cls-6, .cls-7, .cls-8, .cls-9 {
        stroke: #1d1d1b;
      }

      .cls-1, .cls-2, .cls-3, .cls-4, .cls-5, .cls-6, .cls-7, .cls-8, .cls-9 {
        stroke-miterlimit: 10;
      }

      .cls-2, .cls-3 {
        fill: #f39200;
      }

      .cls-3 {
        stroke: #fff;
      }

      .cls-4 {
        fill: #be1622;
      }

      .cls-5 {
        fill: #e6332a;
      }

      .cls-6 {
        fill: #cbbba0;
      }

      .cls-7 {
        fill: #b17f4a;
      }

      .cls-8 {
        fill: #a48a7b;
      }

      .cls-9 {
        fill: none;
      }
    </style>
  </defs>
  <g id="car">
    <path class="cls-1" d="M420.56,460.61" transform="translate(0.24 -328.09)"/>
    <g id="yellow-car">
      <path class="cls-2" d="M40.87,701.63l-13.8-5.51.13-7a11.37,11.37,0,0,0,1.67,1.61,12.54,12.54,0,0,0,4.39,2.16,12.73,12.73,0,0,0,7,.47l.31-.08Q40.72,697.44,40.87,701.63Z" transform="translate(0.24 -328.09)"/>
      <path class="cls-2" d="M40.87,701.63l3.45-2.89v-1.89a4.34,4.34,0,0,1,.16-2.22.76.76,0,0,1,0-.11,5.46,5.46,0,0,1,1.62-2.11c1-.84,2.43-1.93,3.62-1.39.94.43,1.48,1.78,1.33,3.28,1.12-1,2.11-1.79,2.91-2.43,0,0,1.06-.86,2.3-1.8l1.07-.8.7-.52.56-.41,1.07-.82.5-.38c0-.95.08-1.9.11-2.84l.72-1.78c.52-.44,1.08-.89,1.67-1.33l1.17-.86a2.11,2.11,0,0,1,1.64-.14c1,.4,1.54,1.85,1,3.44.53-3,1.07-7.36-.33-7.94a1,1,0,0,0-.72,0c-2.71.8-20.79,14.81-24.39,17.61" transform="translate(0.24 -328.09)"/>
      <path class="cls-2" d="M52.7,700.3" transform="translate(0.24 -328.09)"/>
      <polyline class="cls-2" points="27.31 360.07 34.67 356.07 37.34 356.44 39.49 357.03 42.97 358.51 44.97 359.55 46.75 352.81 36.23 349.99 34.21 355.62"/>
      <polyline class="cls-2" points="35.93 349.33 46.75 343.92 56.15 346.29 47.04 352.36"/>
      <polyline class="cls-2" points="57.04 346.36 59.71 348.14 62.75 347.25 65.93 347.25"/>
      <line class="cls-2" x1="60.08" y1="350.36" x2="59.49" y2="348.51"/>
      <polyline class="cls-2" points="45.49 360.07 52.94 354.44 52.6 349.44 54.75 353.18 58.45 350.81 56.6 346.36"/>
      <g>
        <path class="cls-2" d="M45.87,699.57c-.95-.61-.8-3.59.39-5.46s2.45-2.37,3.41-1.76.79,3.6-.4,5.46S46.83,700.17,45.87,699.57Z" transform="translate(0.24 -328.09)"/>
        <path class="cls-3" d="M46.87,697.62c-.38-.25-.23-1.58.32-2.44s1.09-1.13,1.47-.88.23,1.58-.32,2.44S47.26,697.86,46.87,697.62Z" transform="translate(0.24 -328.09)"/>
      </g>
      <g>
        <path class="cls-2" d="M61.87,688.38c-.95-.61-.8-3.59.39-5.45s2.45-2.38,3.41-1.77.79,3.6-.4,5.47S62.83,689,61.87,688.38Z" transform="translate(0.24 -328.09)"/>
        <path class="cls-3" d="M62.87,686.43c-.38-.24-.23-1.57.32-2.43s1.09-1.13,1.47-.89.23,1.58-.32,2.44S63.26,686.68,62.87,686.43Z" transform="translate(0.24 -328.09)"/>
      </g>
    </g>
    <g id="red-car">
      <path class="cls-4" d="M421.33,729.81l11-8.58-2-7.85a11.53,11.53,0,0,1-1.09,2.1,10.35,10.35,0,0,1-3.4,3.19,9.53,9.53,0,0,1-6.22,1.75l-.3,0Q420.37,725.1,421.33,729.81Z" transform="translate(0.24 -328.09)"/>
      <path class="cls-4" d="M421.33,729.81l-3.87-2.63-.5-2.11a6.36,6.36,0,0,0-.73-2.45l-.06-.12a6.5,6.5,0,0,0-2-2.07c-1.16-.75-2.69-1.73-3.62-.92-.75.65-.88,2.25-.35,3.9-1.27-.9-2.38-1.63-3.27-2.21,0,0-1.18-.77-2.55-1.61l-1.18-.7-.76-.46-.62-.36c-.43-.25-.58-.36-1.18-.73l-.56-.34-.84-3.15L398.09,712c-.58-.4-1.2-.8-1.85-1.2l-1.28-.74a1.64,1.64,0,0,0-1.53.12c-.76.62-.9,2.34,0,4-1.26-3.26-2.89-8-1.78-8.94a.84.84,0,0,1,.65-.12c2.66.42,22.68,12.9,26.67,15.4" transform="translate(0.24 -328.09)"/>
      <path class="cls-2" d="M410.28,730.39" transform="translate(0.24 -328.09)"/>
      <polyline class="cls-5" points="430.51 384.25 422.81 381.07 420.5 381.95 418.71 382.99 415.95 385.25 414.41 386.76 411.04 379.54 419.81 374.56 423.11 380.49"/>
      <polyline class="cls-4" points="419.9 373.76 408.71 369.61 400.83 373.91 410.65 379.1"/>
      <polyline class="cls-2" points="400.04 374.15 398.1 376.6 395.12 376.14 392.24 376.7"/>
      <line class="cls-2" x1="398.34" y1="379.15" x2="398.4" y2="376.98"/>
      <polyline class="cls-6" points="414.08 387.43 405.87 382.45 404.87 376.81 403.9 381.36 399.93 379.36 400.44 374.07"/>
      <g>
        <path class="cls-2" d="M416.27,728.38c.7-.85-.22-4.15-1.78-6s-2.84-2.22-3.55-1.37.23,4.16,1.79,6S415.56,729.22,416.27,728.38Z" transform="translate(0.24 -328.09)"/>
        <path class="cls-3" d="M414.85,726.37c.28-.34-.2-1.8-.92-2.66s-1.29-1.07-1.57-.73.21,1.81.93,2.67S414.57,726.71,414.85,726.37Z" transform="translate(0.24 -328.09)"/>
      </g>
      <g>
        <path class="cls-2" d="M398.87,718.69c.7-.85-.21-4.15-1.78-6s-2.84-2.23-3.54-1.38.23,4.16,1.79,6S398.17,719.54,398.87,718.69Z" transform="translate(0.24 -328.09)"/>
        <path class="cls-3" d="M397.46,716.68c.28-.34-.2-1.8-.93-2.66s-1.28-1.07-1.56-.73.2,1.81.93,2.67S397.17,717,397.46,716.68Z" transform="translate(0.24 -328.09)"/>
      </g>
    </g>
  </g>
  <g id="buildings">
    <g>
      <polygon class="cls-1" points="355.31 141.37 291.93 98.83 291.93 8.26 355.31 23.14 355.31 141.37"/>
      <polygon class="cls-1" points="424.73 105.22 355.31 141.2 355.31 23.14 424.73 10.54 424.73 105.22"/>
      <polygon class="cls-1" points="424.73 10.54 357.78 0.5 291.93 8.26 355.31 23.14 424.73 10.54"/>
    </g>
    <g>
      <polygon class="cls-1" points="273.91 189.17 210.53 156.43 210.53 56.06 273.91 70.94 273.91 189.17"/>
      <polygon class="cls-1" points="343.33 153.02 273.91 189 273.91 70.94 343.33 58.34 343.33 153.02"/>
      <polygon class="cls-1" points="343.33 58.34 276.38 48.3 210.53 56.06 273.91 70.94 343.33 58.34"/>
    </g>
    <g>
      <polygon class="cls-7" points="192.48 233.72 129.1 200.99 129.1 100.61 192.48 115.49 192.48 233.72"/>
      <polygon class="cls-6" points="261.91 197.57 192.48 233.55 192.48 115.49 261.91 102.89 261.91 197.57"/>
      <polygon class="cls-8" points="261.91 102.89 194.95 92.86 129.1 100.61 192.48 115.49 261.91 102.89"/>
    </g>
  </g>
  <g id="streets">
    <g>
      <line class="cls-9" x1="456.24" y1="100.61" x2="185.24" y2="246.91"/>
      <line class="cls-9" x1="185.24" y1="246.91" x2="8.24" y2="150.91"/>
      <line class="cls-9" x1="538.24" y1="109.91" x2="251.24" y2="270.91"/>
      <line class="cls-9" x1="251.24" y1="270.91" x2="570.24" y2="406.91"/>
      <path class="cls-9" d="M190,656.4C321,718,452,781,583,841.89" transform="translate(0.24 -328.09)"/>
      <path class="cls-9" d="M0,567c36,17,72,34,107.56,50.71" transform="translate(0.24 -328.09)"/>
    </g>
    <line class="cls-9" x1="107.8" y1="289.63" x2="0.24" y2="338.91"/>
    <line class="cls-9" x1="190.19" y1="328.31" x2="0.24" y2="431.69"/>
  </g>
</svg>
