<svg xmlns="http://www.w3.org/2000/svg" xmlns:xlink="http://www.w3.org/1999/xlink" width="1920" height="1080" viewBox="0 0 1920 1080">
  <defs>
    <style>
      .cls-1 {
        clip-path: url(#clip-Web_1920_1);
      }

      .cls-2 {
        fill: #fff;
      }

      .cls-3 {
        fill: #1d1d1b;
      }
    </style>
    <clipPath id="clip-Web_1920_1">
      <rect width="1920" height="1080"/>
    </clipPath>
  </defs>
  <g id="Web_1920_1" data-name="Web 1920 – 1" class="cls-1">
    <rect class="cls-2" width="1920" height="1080"/>
    <g id="car" transform="translate(635.69 288.92)">
      <path id="Caminho_1" data-name="Caminho 1" class="cls-2" d="M41.11,373.54,27.31,368l.13-7a11.369,11.369,0,0,0,1.67,1.61,12.6,12.6,0,0,0,4.38,2.16,12.84,12.84,0,0,0,7,.48l.31-.08C40.91,368,41,370.75,41.11,373.54Z"/>
      <path id="Caminho_1_-_Contorno" data-name="Caminho 1 - Contorno" class="cls-3" d="M41.64,374.292,26.8,368.336l.161-8.673.857,1.015a10.892,10.892,0,0,0,1.594,1.537,12.042,12.042,0,0,0,4.2,2.073l.039.012a12.34,12.34,0,0,0,6.717.464l.9-.232.024.62c.053,1.359.1,2.718.149,4.033.051,1.419.1,2.886.161,4.336Zm-13.824-6.627,12.764,5.124c-.046-1.2-.089-2.4-.131-3.569-.04-1.119-.082-2.271-.126-3.427a13.34,13.34,0,0,1-6.983-.546,13.036,13.036,0,0,1-4.534-2.24l0,0q-.46-.361-.884-.767Z"/>
      <path id="Caminho_2" data-name="Caminho 2" class="cls-2" d="M41.11,373.54l3.44-2.89v-1.89a4.49,4.49,0,0,1,.17-2.22.759.759,0,0,1,0-.11,5.46,5.46,0,0,1,1.62-2.11c1-.83,2.43-1.93,3.61-1.39.95.43,1.49,1.78,1.34,3.28,1.12-1,2.11-1.79,2.91-2.43,0,0,1.06-.86,2.3-1.8l1.07-.8.7-.52.56-.41,1.07-.82.5-.38c0-.95.07-1.89.11-2.84l.72-1.78c.52-.44,1.08-.89,1.67-1.33.39-.3.79-.59,1.17-.85a2.06,2.06,0,0,1,1.64-.15c1,.4,1.54,1.85,1,3.44.53-3,1.07-7.36-.33-7.94a1,1,0,0,0-.72,0c-2.71.8-20.79,14.81-24.39,17.61"/>
      <path id="Caminho_2_-_Contorno" data-name="Caminho 2 - Contorno" class="cls-3" d="M41.432,373.923l-.643-.766,3.262-2.74V368.8a5.006,5.006,0,0,1,.168-2.337q0-.036,0-.072l.006-.085.034-.078a5.98,5.98,0,0,1,1.764-2.3c.911-.756,2.6-2.157,4.133-1.456a3.172,3.172,0,0,1,1.624,2.641c.776-.663,1.472-1.22,2.062-1.692l.044-.035c.008-.007,1.078-.874,2.31-1.808l1.073-.8.7-.521.558-.409L59.9,358.8c.007-.593.038-1.184.067-1.758.014-.28.029-.569.041-.854l0-.086.8-1.975.094-.08c.566-.479,1.135-.932,1.691-1.347.387-.3.8-.6,1.189-.864l.042-.026a2.568,2.568,0,0,1,2.038-.186l.028.01a2.136,2.136,0,0,1,.783.545c.332-3.515-.311-4.04-.485-4.117a.5.5,0,0,0-.354,0l-.038.013c-.613.181-2.949,1.458-11.7,7.977-5.142,3.828-10.469,7.953-12.52,9.549l-.614-.789c6.493-5.05,21.855-16.862,24.536-17.689a1.5,1.5,0,0,1,1.061.007l.011,0c.852.353,1.232,1.476,1.2,3.533a28.306,28.306,0,0,1-.349,3.633,4.357,4.357,0,0,1-.236,1.4l-.966-.248q.116-.658.2-1.239a1.767,1.767,0,0,0-.884-1.644,1.565,1.565,0,0,0-1.207.108c-.371.254-.76.537-1.126.819l-.006,0c-.51.38-1.032.794-1.552,1.232l-.641,1.585c-.011.261-.025.523-.038.777-.033.642-.068,1.305-.068,1.956v.248l-.7.53-1.077.825-.56.41-.7.518-1.069.8c-1.216.922-2.274,1.779-2.284,1.788l-.047.037c-.782.626-1.756,1.4-2.845,2.377l-.958.856.128-1.278a2.74,2.74,0,0,0-1.049-2.775c-.964-.441-2.4.748-3.084,1.319l-.009.007a4.978,4.978,0,0,0-1.43,1.822l.005.07-.033.1a4,4,0,0,0-.151,1.973l.008.043v2.167Z"/>
      <path id="Caminho_3" data-name="Caminho 3" class="cls-2" d="M27.31,360.07l7.36-4,2.67.37,2.15.59,3.48,1.48,2,1.04,1.78-6.74-10.52-2.82-2.02,5.63"/>
      <path id="Caminho_3_-_Contorno" data-name="Caminho 3 - Contorno" class="cls-3" d="M27.549,360.509l-.478-.879,7.284-3.959-.616-.221,2.175-6.063,11.446,3.068-2.067,7.826-2.537-1.319L39.325,357.5l-2.086-.572-2.475-.343Zm7.208-4.932,2.684.372,2.214.608,3.546,1.51,1.445.752,1.493-5.654-9.594-2.572Z"/>
      <path id="Caminho_4" data-name="Caminho 4" class="cls-2" d="M35.93,349.33l10.82-5.41,9.4,2.37-9.11,6.07"/>
      <path id="Caminho_4_-_Contorno" data-name="Caminho 4 - Contorno" class="cls-3" d="M47.317,352.776l-.554-.832,8.172-5.445-8.127-2.049-10.654,5.327-.447-.894,10.986-5.493,10.673,2.691Z"/>
      <path id="Caminho_5" data-name="Caminho 5" class="cls-2" d="M57.04,346.36l2.67,1.78,3.04-.89h3.18"/>
      <path id="Caminho_5_-_Contorno" data-name="Caminho 5 - Contorno" class="cls-3" d="M59.627,348.685l-2.864-1.909.555-.832,2.476,1.651,2.885-.845H65.93v1H62.822Z"/>
      <path id="Linha_1" data-name="Linha 1" class="cls-3" d="M.114,2-.476.152l.953-.3.59,1.85Z" transform="translate(59.49 348.51)"/>
      <path id="Caminho_6" data-name="Caminho 6" class="cls-2" d="M45.49,360.07l7.45-5.63-.34-5,2.15,3.74,3.7-2.37-1.85-4.45"/>
      <path id="Caminho_6_-_Contorno" data-name="Caminho 6 - Contorno" class="cls-3" d="M45.791,360.469l-.6-.8,7.234-5.467-.469-6.891,2.968,5.163,2.905-1.861-1.689-4.063.923-.384,2.011,4.837-4.495,2.879-1.332-2.317.211,3.109Z"/>
      <path id="Caminho_7" data-name="Caminho 7" d="M46.11,371.48c-1-.61-.8-3.59.39-5.45s2.45-2.38,3.41-1.77.79,3.6-.4,5.46S47.07,372.09,46.11,371.48Z"/>
      <path id="Caminho_7_-_Contorno" data-name="Caminho 7 - Contorno" class="cls-3" d="M46.928,372.225a2,2,0,0,1-1.083-.321,1.865,1.865,0,0,1-.77-1.238,7.221,7.221,0,0,1,1-4.905c1.186-1.854,2.3-2.244,3.017-2.244a1.992,1.992,0,0,1,1.083.321,1.884,1.884,0,0,1,.751,1.251,7.289,7.289,0,0,1-1,4.9C48.749,371.837,47.646,372.225,46.928,372.225Zm2.167-7.708c-.657,0-1.45.65-2.174,1.782a6.193,6.193,0,0,0-.872,4.141.992.992,0,0,0,.321.612l.008,0a1,1,0,0,0,.55.167c.652,0,1.439-.647,2.161-1.774a6.263,6.263,0,0,0,.864-4.146,1.041,1.041,0,0,0-.311-.623A.994.994,0,0,0,49.1,364.517Z"/>
      <path id="Caminho_8" data-name="Caminho 8" class="cls-3" d="M47.11,369.53c-.38-.25-.23-1.58.32-2.44s1.09-1.13,1.47-.88.23,1.58-.32,2.44S47.49,369.77,47.11,369.53Z"/>
      <path id="Caminho_8_-_Contorno" data-name="Caminho 8 - Contorno" class="cls-2" d="M47.4,370.115a1.031,1.031,0,0,1-.559-.162l-.008-.005c-.773-.508-.407-2.219.174-3.127.634-.992,1.218-1.2,1.6-1.2a1.034,1.034,0,0,1,.569.171c.773.508.407,2.219-.174,3.127C48.369,369.908,47.783,370.115,47.4,370.115Zm1.187-3.493c-.1.016-.374.168-.738.737a2.808,2.808,0,0,0-.431,1.754c.113-.017.388-.184.739-.733A2.8,2.8,0,0,0,48.589,366.622Z"/>
      <path id="Caminho_9" data-name="Caminho 9" d="M62.11,360.29c-1-.61-.8-3.59.39-5.45s2.45-2.38,3.41-1.77.79,3.61-.4,5.47S63.07,360.9,62.11,360.29Z"/>
      <path id="Caminho_9_-_Contorno" data-name="Caminho 9 - Contorno" class="cls-3" d="M62.934,361.036a2.008,2.008,0,0,1-1.088-.322,1.864,1.864,0,0,1-.771-1.238,7.221,7.221,0,0,1,1-4.905c1.186-1.854,2.3-2.244,3.017-2.244a1.992,1.992,0,0,1,1.083.321,1.884,1.884,0,0,1,.75,1.251,7.3,7.3,0,0,1-1,4.91C64.754,360.65,63.651,361.036,62.934,361.036Zm2.162-7.709c-.657,0-1.45.65-2.174,1.782a6.193,6.193,0,0,0-.872,4.141.992.992,0,0,0,.321.612l.008,0a1.011,1.011,0,0,0,.555.168c.652,0,1.437-.644,2.155-1.766a6.276,6.276,0,0,0,.863-4.155,1.042,1.042,0,0,0-.31-.623A.994.994,0,0,0,65.1,353.327Z"/>
      <path id="Caminho_10" data-name="Caminho 10" class="cls-3" d="M63.11,358.34c-.38-.24-.23-1.57.32-2.43s1.09-1.13,1.47-.89.23,1.58-.32,2.45S63.49,358.59,63.11,358.34Z"/>
      <path id="Caminho_10_-_Contorno" data-name="Caminho 10 - Contorno" class="cls-2" d="M63.413,358.932a1.049,1.049,0,0,1-.575-.172.949.949,0,0,1-.395-.625,3.753,3.753,0,0,1,.565-2.494c.637-1,1.224-1.2,1.6-1.2a1.023,1.023,0,0,1,.554.161c.46.291.481.962.418,1.473A4.189,4.189,0,0,1,65,357.737C64.378,358.725,63.794,358.932,63.413,358.932Zm1.178-3.493c-.1.02-.379.177-.74.741a2.8,2.8,0,0,0-.43,1.752c.1-.008.381-.167.736-.729A2.88,2.88,0,0,0,64.591,355.439Z"/>
    </g>
    <g id="buildings" transform="translate(638.76 282.85)">
      <path id="Caminho_11" data-name="Caminho 11" class="cls-2" d="M355.31,141.37,291.93,98.83V8.26l63.38,14.88Z"/>
      <path id="Caminho_11_-_Contorno" data-name="Caminho 11 - Contorno" class="cls-3" d="M355.81,142.308,291.43,99.1V7.629l64.38,15.115ZM292.43,98.563l62.38,41.869V23.536L292.43,8.891Z"/>
      <path id="Caminho_12" data-name="Caminho 12" class="cls-2" d="M424.73,105.22,355.31,141.2V23.14l69.42-12.6Z"/>
      <path id="Caminho_12_-_Contorno" data-name="Caminho 12 - Contorno" class="cls-3" d="M354.81,142.022V22.723L425.23,9.941v95.583Zm1-118.465v116.82l68.42-35.462V11.139Z"/>
      <path id="Caminho_13" data-name="Caminho 13" class="cls-2" d="M424.73,10.54,357.78.5,291.93,8.26l63.38,14.88Z"/>
      <path id="Caminho_13_-_Contorno" data-name="Caminho 13 - Contorno" class="cls-3" d="M357.788,0l70,10.5L355.3,23.651,289.046,8.1Zm63.884,10.591L357.772,1,294.814,8.424l60.509,14.206Z"/>
      <path id="Caminho_14" data-name="Caminho 14" class="cls-2" d="M273.91,189.17l-63.38-32.74V56.06l63.38,14.88Z"/>
      <path id="Caminho_14_-_Contorno" data-name="Caminho 14 - Contorno" class="cls-3" d="M274.41,189.991l-64.38-33.257V55.429l64.38,15.115Zm-63.38-33.866,62.38,32.223V71.336L211.03,56.691Z"/>
      <path id="Caminho_15" data-name="Caminho 15" class="cls-2" d="M343.33,153.02,273.91,189V70.94l69.42-12.6Z"/>
      <path id="Caminho_15_-_Contorno" data-name="Caminho 15 - Contorno" class="cls-3" d="M273.41,189.822V70.523l70.42-12.782v95.583Zm1-118.465v116.82l68.42-35.462V58.939Z"/>
      <path id="Caminho_16" data-name="Caminho 16" class="cls-2" d="M343.33,58.34,276.38,48.3l-65.85,7.76,63.38,14.88Z"/>
      <path id="Caminho_16_-_Contorno" data-name="Caminho 16 - Contorno" class="cls-3" d="M276.388,47.8l70,10.5L273.9,71.451,207.646,55.9Zm63.884,10.591-63.9-9.583-62.958,7.419,60.509,14.206Z"/>
      <path id="Caminho_17" data-name="Caminho 17" class="cls-2" d="M192.48,233.72,129.1,200.99V100.61l63.38,14.88Z"/>
      <path id="Caminho_17_-_Contorno" data-name="Caminho 17 - Contorno" class="cls-3" d="M192.98,234.541,128.6,201.295V99.979l64.38,15.115ZM129.6,200.685,191.98,232.9V115.886L129.6,101.241Z"/>
      <path id="Caminho_18" data-name="Caminho 18" class="cls-2" d="M261.91,197.57l-69.43,35.98V115.49l69.43-12.6Z"/>
      <path id="Caminho_18_-_Contorno" data-name="Caminho 18 - Contorno" class="cls-3" d="M191.98,234.372v-119.3l70.43-12.781v95.583Zm1-118.465v116.82l68.43-35.462V103.489Z"/>
      <path id="Caminho_19" data-name="Caminho 19" class="cls-2" d="M261.91,102.89,194.95,92.86l-65.85,7.75,63.38,14.88Z"/>
      <path id="Caminho_19_-_Contorno" data-name="Caminho 19 - Contorno" class="cls-3" d="M194.958,92.356l.066.01,69.946,10.477L192.467,116l-66.252-15.554Zm63.892,10.582-63.908-9.573-62.957,7.409,60.507,14.206Z"/>
    </g>
    <g id="streets" transform="translate(638.76 282.85)">
      <path id="Linha_2" data-name="Linha 2" class="cls-3" d="M.238,146.74l-.475-.88,271-146.3.475.88Z" transform="translate(185.24 100.61)"/>
      <path id="Linha_3" data-name="Linha 3" class="cls-3" d="M176.762,96.44l-177-96L.238-.44l177,96Z" transform="translate(8.24 150.91)"/>
      <path id="Linha_4" data-name="Linha 4" class="cls-3" d="M.245,161.436l-.489-.872,287-161,.489.872Z" transform="translate(251.24 109.91)"/>
      <path id="Linha_5" data-name="Linha 5" class="cls-3" d="M318.8,136.46-.2.46.2-.46l319,136Z" transform="translate(251.24 270.91)"/>
      <path id="Caminho_20" data-name="Caminho 20" class="cls-3" d="M583.029,514.253c-78.223-36.359-157.76-74.093-234.678-110.585-51.9-24.625-105.576-50.088-158.374-74.906l.425-.9c52.8,24.819,106.472,50.282,158.377,74.907C425.7,439.256,505.231,476.99,583.451,513.347Z"/>
      <path id="Caminho_21" data-name="Caminho 21" class="cls-3" d="M107.587,290.082c-35.559-16.72-72.161-34-107.557-50.719l.423-.906,0,0c35.4,16.715,72,34,107.555,50.718Z"/>
      <path id="Linha_6" data-name="Linha 6" class="cls-3" d="M.208,49.735l-.417-.909L107.352-.455l.417.909Z" transform="translate(0.24 289.63)"/>
      <path id="Linha_7" data-name="Linha 7" class="cls-3" d="M.239,103.819l-.478-.878L189.711-.439l.478.878Z" transform="translate(0.24 328.31)"/>
    </g>
  </g>
</svg>
